<svg xmlns="http://www.w3.org/2000/svg" height="512pt" version="1.1" viewBox="-23 0 512 512.00072" width="512pt">
<g id="surface1">
<path d="M 348.945312 221.640625 L 348.945312 124.746094 C 348.945312 121.972656 347.664062 119.410156 345.851562 117.382812 L 237.21875 3.308594 C 235.191406 1.175781 232.308594 0 229.429688 0 L 57.195312 0 C 25.398438 0 0 25.929688 0 57.730469 L 0 383.414062 C 0 415.214844 25.398438 440.71875 57.195312 440.71875 L 193.148438 440.71875 C 218.863281 483.402344 265.605469 512 318.851562 512 C 399.738281 512 465.792969 446.265625 465.792969 365.273438 C 465.902344 294.523438 415.105469 235.40625 348.945312 221.640625 Z M 240.101562 37.457031 L 312.984375 114.179688 L 265.710938 114.179688 C 251.625 114.179688 240.101562 102.550781 240.101562 88.464844 Z M 57.195312 419.375 C 37.242188 419.375 21.34375 403.367188 21.34375 383.414062 L 21.34375 57.730469 C 21.34375 37.667969 37.242188 21.34375 57.195312 21.34375 L 218.757812 21.34375 L 218.757812 88.464844 C 218.757812 114.394531 239.78125 135.523438 265.710938 135.523438 L 327.601562 135.523438 L 327.601562 218.863281 C 324.402344 218.757812 321.839844 218.4375 319.066406 218.4375 C 281.824219 218.4375 247.570312 232.738281 221.746094 255.148438 L 86.222656 255.148438 C 80.351562 255.148438 75.550781 259.949219 75.550781 265.816406 C 75.550781 271.6875 80.351562 276.488281 86.222656 276.488281 L 201.898438 276.488281 C 194.320312 287.160156 188.023438 297.832031 183.117188 309.570312 L 86.222656 309.570312 C 80.351562 309.570312 75.550781 314.371094 75.550781 320.242188 C 75.550781 326.109375 80.351562 330.914062 86.222656 330.914062 L 176.179688 330.914062 C 173.511719 341.585938 172.125 353.429688 172.125 365.273438 C 172.125 384.480469 175.859375 403.476562 182.582031 419.484375 L 57.195312 419.484375 Z M 318.960938 490.765625 C 249.8125 490.765625 193.574219 434.527344 193.574219 365.378906 C 193.574219 296.230469 249.703125 239.992188 318.960938 239.992188 C 388.214844 239.992188 444.34375 296.230469 444.34375 365.378906 C 444.34375 434.527344 388.109375 490.765625 318.960938 490.765625 Z M 318.960938 490.765625 " style=" stroke:none;fill-rule:nonzero;fill:rgb(0%,0%,0%);fill-opacity:1;" />
<path d="M 86.222656 223.027344 L 194.320312 223.027344 C 200.191406 223.027344 204.992188 218.222656 204.992188 212.355469 C 204.992188 206.484375 200.191406 201.683594 194.320312 201.683594 L 86.222656 201.683594 C 80.351562 201.683594 75.550781 206.484375 75.550781 212.355469 C 75.550781 218.222656 80.351562 223.027344 86.222656 223.027344 Z M 86.222656 223.027344 " style=" stroke:none;fill-rule:nonzero;fill:rgb(0%,0%,0%);fill-opacity:1;" />
<path d="M 201.683594 359.402344 C 198.910156 363.136719 198.910156 368.261719 201.683594 371.996094 C 203.816406 374.875 254.078125 442.746094 318.746094 442.746094 C 383.414062 442.746094 433.671875 374.875 435.808594 371.996094 C 438.582031 368.261719 438.582031 363.136719 435.808594 359.402344 C 433.671875 356.523438 383.414062 288.652344 318.746094 288.652344 C 254.1875 288.761719 203.816406 356.523438 201.683594 359.402344 Z M 413.507812 365.699219 C 400.167969 381.492188 362.070312 421.402344 318.746094 421.402344 C 275.421875 421.402344 237.328125 381.492188 223.988281 365.699219 C 237.328125 349.90625 275.421875 309.996094 318.746094 309.996094 C 362.070312 310.101562 400.167969 349.90625 413.507812 365.699219 Z M 413.507812 365.699219 " style=" stroke:none;fill-rule:nonzero;fill:rgb(0%,0%,0%);fill-opacity:1;" />
<path d="M 267.632812 365.699219 C 267.632812 393.871094 290.574219 416.921875 318.851562 416.921875 C 347.132812 416.921875 370.074219 393.976562 370.074219 365.699219 C 370.074219 337.421875 347.132812 314.476562 318.851562 314.476562 C 290.574219 314.476562 267.632812 337.527344 267.632812 365.699219 Z M 348.625 365.699219 C 348.625 382.132812 335.285156 395.578125 318.746094 395.578125 C 302.207031 395.578125 288.867188 382.238281 288.867188 365.699219 C 288.867188 349.265625 302.207031 335.820312 318.746094 335.820312 C 335.285156 335.820312 348.625 349.265625 348.625 365.699219 Z M 348.625 365.699219 " style=" stroke:none;fill-rule:nonzero;fill:rgb(0%,0%,0%);fill-opacity:1;" />
</g>
</svg>