<svg xmlns="http://www.w3.org/2000/svg" viewBox="0 0 16 20" width="16" height="20">
	<style>
		tspan { white-space:pre }
		.shp0 { fill: #ffffff } 
	</style>
	<path id="Forma 1" class="shp0" d="M8.02,13.96l0,-6.48c0,-0.16 -0.13,-0.29 -0.29,-0.29v0c-0.16,0 -0.29,0.13 -0.29,0.29l0,6.48c0,0.16 0.13,0.29 0.29,0.29v0c0.16,0 0.29,-0.13 0.29,-0.29zM7.94,14.16l2.48,-2.48c0.11,-0.11 0.11,-0.29 0,-0.41c-0.11,-0.11 -0.29,-0.11 -0.41,0l-2.28,2.27l-2.28,-2.27c-0.11,-0.11 -0.29,-0.11 -0.41,0c-0.11,0.11 -0.11,0.29 0,0.41l2.48,2.48c0.06,0.06 0.13,0.08 0.2,0.08c0.07,0 0.15,-0.03 0.2,-0.08zM15.47,17.7v-12.69c0,-0.16 -0.13,-0.29 -0.29,-0.29c-0.16,0 -0.29,0.13 -0.29,0.29v12.69c0,0.48 -0.39,0.86 -0.86,0.86h-12.59c-0.48,0 -0.86,-0.39 -0.86,-0.86v-16.25c0,-0.47 0.39,-0.86 0.86,-0.86h9.14c0.16,0 0.29,-0.13 0.29,-0.29c0,-0.16 -0.13,-0.29 -0.29,-0.29h-9.14c-0.79,0 -1.44,0.64 -1.44,1.44v16.25c0,0.79 0.65,1.44 1.44,1.44h12.59c0.79,0 1.44,-0.64 1.44,-1.43zM15.47,5.01c0,-0.16 -0.13,-0.29 -0.29,-0.29h-4.31v-4.3c0,-0.16 -0.13,-0.29 -0.29,-0.29c-0.16,0 -0.29,0.13 -0.29,0.29v4.59c0,0.16 0.13,0.29 0.29,0.29h4.6c0.16,0 0.29,-0.13 0.29,-0.29zM15.38,5.22c0.11,-0.11 0.12,-0.29 0.01,-0.41l-4.6,-4.71c-0.11,-0.11 -0.29,-0.12 -0.41,-0.01c-0.11,0.11 -0.12,0.29 -0.01,0.41l4.6,4.71c0.06,0.06 0.13,0.09 0.21,0.09c0.07,0 0.15,-0.03 0.2,-0.08z" />
</svg>