<svg id="cdr_layer3" xmlns="http://www.w3.org/2000/svg" viewBox="0 0 346.1 303.62"><defs><style>.cls-1,.cls-2{fill:#201600;}.cls-1,.cls-3{fill-rule:evenodd;}.cls-3{fill:#fff;}</style></defs><title>logo_svg</title><path class="cls-1" d="M25.33,289.17h2.78a10.4,10.4,0,0,1,1.93.17,3.38,3.38,0,0,1,1.69.89,2.79,2.79,0,0,1,.77,2.14,3.09,3.09,0,0,1-.28,1.33,3.05,3.05,0,0,1-.74,1,3.38,3.38,0,0,1-1,.62v0a3.46,3.46,0,0,1,1.53.46A3.07,3.07,0,0,1,33.14,297a3.62,3.62,0,0,1-2,5.32,7.14,7.14,0,0,1-2.28.35H25.33Zm1.32,5.77h1.72a2.75,2.75,0,0,0,2.11-.72,2.54,2.54,0,0,0,.67-1.79,1.75,1.75,0,0,0-.89-1.77,4.39,4.39,0,0,0-1.87-.41H26.65Zm0,6.66h2.24a3.55,3.55,0,0,0,2.51-.78,2.63,2.63,0,0,0,.82-2,2.54,2.54,0,0,0-.88-2.07,3.84,3.84,0,0,0-2.52-.73H26.65Z"/><polygon class="cls-1" points="45.95 302.76 45.95 296.54 41.66 289.24 43.13 289.24 46.6 295.34 50.08 289.24 51.55 289.24 47.27 296.54 47.27 302.76 45.95 302.76"/><path class="cls-1" d="M72.58,302.83V289.31h3.36a8.11,8.11,0,0,1,4.12,1,6.13,6.13,0,0,1,2.46,2.51,7.06,7.06,0,0,1,.8,3.28,7.16,7.16,0,0,1-.79,3.32,6,6,0,0,1-2.46,2.49,8.23,8.23,0,0,1-4.13.95Zm1.31-1.08h1.91a7,7,0,0,0,3.57-.81,4.7,4.7,0,0,0,2-2.1,6.6,6.6,0,0,0,.59-2.77,6,6,0,0,0-.47-2.45,4.88,4.88,0,0,0-1.31-1.79,5.71,5.71,0,0,0-1.95-1.08,7.63,7.63,0,0,0-2.39-.36H73.9Z"/><rect class="cls-2" x="92.02" y="289.39" width="1.32" height="13.52"/><path class="cls-1" d="M101,303.19l6.06-13.9,6,13.9h-1.35l-1.88-4.4H104.2l-1.87,4.4Zm3.69-5.48h4.73L107,292.16Z"/><polygon class="cls-1" points="121.7 302.97 121.7 289.46 123.01 289.46 123.01 295.73 129.06 289.46 130.68 289.46 124.27 296 130.81 302.97 129.06 302.97 123.01 296.41 123.01 302.97 121.7 302.97"/><path class="cls-1" d="M136.7,296.26a7.43,7.43,0,0,1,.51-2.74,6.77,6.77,0,0,1,3.79-3.84,7.82,7.82,0,0,1,3-.56,7.73,7.73,0,0,1,3,.56,6.86,6.86,0,0,1,3.81,3.84,7.58,7.58,0,0,1,0,5.48,6.85,6.85,0,0,1-3.82,3.85,7.72,7.72,0,0,1-3,.56,7.81,7.81,0,0,1-3-.56,6.79,6.79,0,0,1-2.32-1.55,6.86,6.86,0,0,1-1.48-2.3A7.42,7.42,0,0,1,136.7,296.26Zm1.39,0h0a6.42,6.42,0,0,0,.41,2.29,6,6,0,0,0,1.2,1.95,5.61,5.61,0,0,0,1.88,1.35,6.31,6.31,0,0,0,4.85,0,5.52,5.52,0,0,0,1.88-1.33,6,6,0,0,0,1.19-1.95,6.65,6.65,0,0,0,0-4.61,5.94,5.94,0,0,0-1.19-1.94,5.5,5.5,0,0,0-1.88-1.33,6,6,0,0,0-2.43-.48,5.92,5.92,0,0,0-2.43.49,5.59,5.59,0,0,0-1.88,1.34A6,6,0,0,0,138.5,294,6.43,6.43,0,0,0,138.09,296.26Z"/><polygon class="cls-1" points="163.96 303.33 158.69 289.28 160.12 289.28 163.96 299.95 167.8 289.28 169.23 289.28 163.96 303.33"/><path class="cls-1" d="M188,302.77l-1.54-2a9,9,0,0,1-1.31,1.35,4,4,0,0,1-1.26.74,4.76,4.76,0,0,1-1.5.21,4.28,4.28,0,0,1-2.18-.52,3.47,3.47,0,0,1-1.36-1.37,4,4,0,0,1-.07-3.55,4.52,4.52,0,0,1,1.09-1.36,17.18,17.18,0,0,1,1.9-1.38,12.23,12.23,0,0,1-1.21-1.62,2.71,2.71,0,0,1-.37-1.39,2.48,2.48,0,0,1,.39-1.35,2.71,2.71,0,0,1,1.07-1,3.23,3.23,0,0,1,1.5-.35,2.84,2.84,0,0,1,1.43.34,2.28,2.28,0,0,1,.92.94,2.89,2.89,0,0,1,.32,1.36,2.53,2.53,0,0,1-.54,1.57,9.14,9.14,0,0,1-1.93,1.7l3.22,4,1.81-2.14.81.65-2,2.31,2.15,2.74Zm-2.2-2.74h0l-3.42-4.3q-1,.74-1.56,1.18A3.72,3.72,0,0,0,180,298a3,3,0,0,0-.33,1.46,2.66,2.66,0,0,0,.39,1.4,2.83,2.83,0,0,0,1,1,2.73,2.73,0,0,0,1.37.37,2.8,2.8,0,0,0,1.1-.2,3.59,3.59,0,0,0,1-.65Q185,300.89,185.81,300Zm-3.07-5.62h0a5.85,5.85,0,0,0,1.42-1.16,2.15,2.15,0,0,0,.45-1.4,1.69,1.69,0,0,0-.44-1.17,1.4,1.4,0,0,0-1.08-.5,1.84,1.84,0,0,0-1.17.44,1.54,1.54,0,0,0-.55,1.28,2.45,2.45,0,0,0,.42,1.31A6.85,6.85,0,0,0,182.74,294.41Z"/><path class="cls-1" d="M197.38,302.61l6.06-13.9,6,13.9h-1.35l-1.88-4.4H200.6l-1.87,4.4Zm3.69-5.48h4.73l-2.36-5.54Z"/><path class="cls-1" d="M223.75,295.59H230a9.48,9.48,0,0,1-.34,2.42,6.83,6.83,0,0,1-1.08,2.24,5.43,5.43,0,0,1-2,1.66,6.82,6.82,0,0,1-3.06.63,7.39,7.39,0,0,1-3.82-.94,6.18,6.18,0,0,1-2.43-2.56,7.79,7.79,0,0,1-.82-3.58,8.21,8.21,0,0,1,.8-3.64,6.22,6.22,0,0,1,2.33-2.6,6.63,6.63,0,0,1,3.59-1,7.4,7.4,0,0,1,3.38.78,6.77,6.77,0,0,1,2.58,2.33l-1,.74a5.76,5.76,0,0,0-5-2.76,5,5,0,0,0-2.28.51,4.84,4.84,0,0,0-1.67,1.37,6.24,6.24,0,0,0-1,2,7.57,7.57,0,0,0-.34,2.27,7,7,0,0,0,.44,2.53,5.35,5.35,0,0,0,1.21,1.9,5.22,5.22,0,0,0,1.81,1.17,6,6,0,0,0,2.19.4,5.47,5.47,0,0,0,2.62-.63,4.73,4.73,0,0,0,1.86-1.73,4.6,4.6,0,0,0,.68-2.43h-4.87Z"/><path class="cls-1" d="M239.37,289.36h1.32V298a5.17,5.17,0,0,0,.47,2.34,3.1,3.1,0,0,0,1.27,1.37,3.7,3.7,0,0,0,3.47,0,3.12,3.12,0,0,0,1.28-1.36,5.12,5.12,0,0,0,.48-2.36v-8.67H249v8.48q0,3.17-1.49,4.3a5.34,5.34,0,0,1-3.3,1.13,6,6,0,0,1-2.15-.4,3.92,3.92,0,0,1-1.86-1.61,6.19,6.19,0,0,1-.79-3.41Z"/><path class="cls-1" d="M259,303.62V290.11h3.61a4.81,4.81,0,0,1,2.62.78,3.13,3.13,0,0,1,1.23,2.87,3.86,3.86,0,0,1-.35,1.63,3.1,3.1,0,0,1-1.31,1.34,5.77,5.77,0,0,1-2.59.66l4.79,6.24H265.4l-4.64-6.22h-.5v6.22Zm1.31-7.3h1.35q3.44,0,3.44-2.57a2.18,2.18,0,0,0-.87-2.07,4.51,4.51,0,0,0-2.25-.5h-1.66Z"/><polygon class="cls-1" points="276.47 303.48 276.47 289.96 283.71 289.96 283.71 291.04 277.78 291.04 277.78 295.37 283.5 295.37 283.5 296.45 277.78 296.45 277.78 302.4 283.71 302.4 283.71 303.48 276.47 303.48"/><polygon class="cls-1" points="293.71 303.05 293.71 289.53 300.95 289.53 300.95 290.61 295.02 290.61 295.02 294.94 300.74 294.94 300.74 296.02 295.02 296.02 295.02 301.96 300.95 301.96 300.95 303.05 293.71 303.05"/><polygon class="cls-1" points="315.5 303.55 310.23 289.49 311.65 289.49 315.5 300.17 319.34 289.49 320.77 289.49 315.5 303.55"/><path class="cls-1" d="M26.36,237.79a16.16,16.16,0,0,0,.1-2.12,5.88,5.88,0,0,0-.54-2.55,4.43,4.43,0,0,0-1.47-1.8,8.75,8.75,0,0,0-4.9-1.11,13.39,13.39,0,0,0-5.76,1.18,11.54,11.54,0,0,0-4.17,3.3Q6.23,239,6.23,246.3q0,7,3.44,11.09a11.85,11.85,0,0,0,9.64,4.32q6,0,9.3-2.61a14.24,14.24,0,0,0,1.84-1.68,2.19,2.19,0,0,1,1.27,1.37,2.81,2.81,0,0,1,.15,1,3.73,3.73,0,0,1-.92,1.86A10.24,10.24,0,0,1,28.28,264a17.9,17.9,0,0,1-10,2.74q-8.37,0-13.34-5.09T0,248.31a24.86,24.86,0,0,1,1.63-9.23,20.83,20.83,0,0,1,4.45-7,19.49,19.49,0,0,1,6.58-4.43A19.12,19.12,0,0,1,20,226.11a22.07,22.07,0,0,1,5.7.59,11.07,11.07,0,0,1,3.57,1.63A6.69,6.69,0,0,1,32.08,234a4,4,0,0,1-2,3.8,2.85,2.85,0,0,1-1.45.39A5.14,5.14,0,0,1,26.36,237.79Z"/><path class="cls-1" d="M68.66,263.37a10.82,10.82,0,0,0,1.63.18,4.91,4.91,0,0,0,1.07-.12,2.91,2.91,0,0,0,.94-.37,1.94,1.94,0,0,0,.93-1.78,5.1,5.1,0,0,0-.62-2.25l-2.43-6H53.83l-2.9,7.34a4.48,4.48,0,0,0-.41,1.46,1.26,1.26,0,0,0,.14.67,1.12,1.12,0,0,0,.44.37,3.1,3.1,0,0,0,.74.26l1.06.28a10.44,10.44,0,0,1,2.2.52,1.56,1.56,0,0,1,1,1.45,1.86,1.86,0,0,1-.39,1.19,3.59,3.59,0,0,0-.91-.13H44.29q-3.44,0-3.44-1.89a2.39,2.39,0,0,1,.39-1.42,6.39,6.39,0,0,0,1.62.26,2.65,2.65,0,0,0,1.11-.21,2.52,2.52,0,0,0,.86-.7,13,13,0,0,0,1.63-3.41l12.77-30.91q.54-1.24,3.08-1.71a8.09,8.09,0,0,1,1.47-.13q1.58,0,1.94.85l2.59,6.46q7.47,17.63,8.63,20.57l2.33,6.1a7.78,7.78,0,0,0,1.16,2.45,2.57,2.57,0,0,0,1,.65,9.12,9.12,0,0,0,1.12.3,5.63,5.63,0,0,1,1,.3,1.43,1.43,0,0,1,1,1.34,1.86,1.86,0,0,1-.39,1.19,3.46,3.46,0,0,0-.88-.13H71a5.24,5.24,0,0,1-2.05-.32,1.05,1.05,0,0,1-.74-1A2.49,2.49,0,0,1,68.66,263.37Zm0-14h0l-6.77-16.75-6.64,16.75Z"/><path class="cls-1" d="M120,266a9.68,9.68,0,0,0-2.56-.21H102.64a4.68,4.68,0,0,1-2.16-.43,1.6,1.6,0,0,1-.81-1.56,2.05,2.05,0,0,1,.41-1.32,7.17,7.17,0,0,0,3.52.08,4.47,4.47,0,0,0,1.47-.65,3.8,3.8,0,0,0,1.76-3.23V230h-3.36a21.22,21.22,0,0,0-4.9.35,4.4,4.4,0,0,0-1.73.89,3.92,3.92,0,0,0-.94,1.47,21.87,21.87,0,0,0-1,5.53,4.7,4.7,0,0,1-1,.13q-1,0-1.32-.54a3.83,3.83,0,0,1-.39-1.12,12.49,12.49,0,0,1-.16-1.28q-.1-1.4-.1-3,0-4.32.67-5.48a2.78,2.78,0,0,1,2.69-1.24q.39,0,1.14.08t2.17.18q3.85.23,9.23.23h4.37q7.49,0,10-.24t3.15-.25a3.44,3.44,0,0,1,1.14.18,2,2,0,0,1,.83.52,2.1,2.1,0,0,1,.49,1.42q0,1.29-.08,2.07t-.17,1.84q-.09,1.06-.24,2.2a12.12,12.12,0,0,1-.91,3.7,1.51,1.51,0,0,1-1.25.72,5.93,5.93,0,0,1-1.31-.13l0-1.63a20,20,0,0,0-.26-3.63,3.22,3.22,0,0,0-1.09-2,4.55,4.55,0,0,0-2.38-.83A39.93,39.93,0,0,0,116,230h-3.1v29.75q0,1.86,3,2.59l1.38.28,1.28.27a4.63,4.63,0,0,1,1,.35,1.44,1.44,0,0,1,.83,1.4A2.21,2.21,0,0,1,120,266Z"/><path class="cls-1" d="M166.91,254.62a2.25,2.25,0,0,1,1.47-.59c.79,0,1.25.11,1.37.34q1,2,1,6.67a11.14,11.14,0,0,1-.72,4.68c-.16.28-.32.41-.49.41H141q-3.07,0-3.07-1.84a2.35,2.35,0,0,1,.41-1.5,6,6,0,0,0,1.71.26,6.73,6.73,0,0,0,1.42-.13,2.66,2.66,0,0,0,1.11-.54,3.83,3.83,0,0,0,1.24-3.23V233a2.69,2.69,0,0,0-1.81-2.87q-.52-.18-1.07-.32l-1.06-.28a5.81,5.81,0,0,1-.89-.32,1.41,1.41,0,0,1-.88-1.27,2.28,2.28,0,0,1,.41-1.53,3.43,3.43,0,0,0,.93.13H165.9a6.09,6.09,0,0,1,3,.44q1.08.78,1.09,3.41a16.52,16.52,0,0,1-.43,4.13,11.48,11.48,0,0,1-.61,1.91,1,1,0,0,1-1,.47,2.86,2.86,0,0,1-1.49-.27c-.27-.18-.41-.31-.43-.4q-.34-3.7-1.16-4.72a4.19,4.19,0,0,0-2-1.4,9.48,9.48,0,0,0-2.93-.37h-5.76q-2.74,0-3.35.54a2.33,2.33,0,0,0-.76,1.25,8.83,8.83,0,0,0-.16,1.82v11l1.53,0a52.44,52.44,0,0,0,10.6-1,1.72,1.72,0,0,1,.65,1A5.17,5.17,0,0,1,163,246a5.86,5.86,0,0,1-.47,2.43q-1.71.16-3.93.16t-8.66-.72v11.66a2.89,2.89,0,0,0,1,2.61,6.22,6.22,0,0,0,3.15.57l3.9-.1q5.66-.21,7.37-1.58a3.67,3.67,0,0,0,1.27-2,10.64,10.64,0,0,0,.31-2.55Q167,255.19,166.91,254.62Z"/><path class="cls-1" d="M198.62,266.16a9.54,9.54,0,0,0-2.53-.21H185.54a4.6,4.6,0,0,1-2.15-.43,1.61,1.61,0,0,1-.8-1.56,2.07,2.07,0,0,1,.39-1.32,7.37,7.37,0,0,0,1.89.26,4.16,4.16,0,0,0,1.42-.19,2.07,2.07,0,0,0,.9-.68,5.84,5.84,0,0,0,.78-3.44V232.15a2.36,2.36,0,0,0-1.19-2.3,4.77,4.77,0,0,0-.92-.28l-1.14-.27a4.2,4.2,0,0,1-.94-.35,1.23,1.23,0,0,1-.78-1.09,2.81,2.81,0,0,1,.41-1.73,9.68,9.68,0,0,0,2.56.21h3.36l9.07-.26,1.11,0q8,0,11.92,2.83a9.23,9.23,0,0,1,4,8,11.3,11.3,0,0,1-2.51,7.08,13.75,13.75,0,0,1-7.7,4.86,13.52,13.52,0,0,1,3.05,3.41l2.74,4q3.85,5.61,6.38,5.61a4.4,4.4,0,0,0,1.45-.18l.65-.26a1.3,1.3,0,0,1,.46-.08c.17,0,.35.13.54.4a1.54,1.54,0,0,1,.29.92,2.43,2.43,0,0,1-.44,1.23,4.46,4.46,0,0,1-1.24,1.28,6.57,6.57,0,0,1-4,1.32,7.57,7.57,0,0,1-3.53-.72,10,10,0,0,1-2.53-1.9,16,16,0,0,1-2.09-2.68q-.94-1.5-1.77-3.08L203.66,255a18.23,18.23,0,0,0-2.6-4.33,2.69,2.69,0,0,0-1.77-1h-2.61q-.65,0-.65-.93a2.36,2.36,0,0,1,1-2,5.08,5.08,0,0,1,2-.27,13.59,13.59,0,0,0,3.79-.71,10,10,0,0,0,3.47-1.84,8.08,8.08,0,0,0,2.66-6.46,7.55,7.55,0,0,0-2.33-5.71,10.4,10.4,0,0,0-7.34-2.56q-3.1,0-4.14.93t-1.08,3.34v26.39q0,2,1.14,2.59a5.27,5.27,0,0,0,1,.28l1.15.27a4.21,4.21,0,0,1,.94.35,1.24,1.24,0,0,1,.78,1.11A2.76,2.76,0,0,1,198.62,266.16Z"/><path class="cls-1" d="M244.33,266.23a9.74,9.74,0,0,0-2.56-.21H231a4.6,4.6,0,0,1-2.15-.43A1.61,1.61,0,0,1,228,264a2.07,2.07,0,0,1,.39-1.32,7.84,7.84,0,0,0,1.9.26,4.18,4.18,0,0,0,1.37-.18,1.89,1.89,0,0,0,.87-.65,5.34,5.34,0,0,0,.85-3.23V232.5q0-2-1.14-2.56a4.22,4.22,0,0,0-1-.31l-1.23-.27a4.67,4.67,0,0,1-1-.35,1.44,1.44,0,0,1-.83-1.4,2.19,2.19,0,0,1,.39-1.42,9.68,9.68,0,0,0,2.56.21H241.7a4.65,4.65,0,0,1,2.16.43,1.6,1.6,0,0,1,.81,1.56,1.93,1.93,0,0,1-.41,1.32,8.44,8.44,0,0,0-2.15-.26q-2.51,0-2.58,4.08v26.39q0,2,1.14,2.58a5.28,5.28,0,0,0,1,.28l1.23.27a4.64,4.64,0,0,1,1,.35,1.47,1.47,0,0,1,.85,1.4A2.22,2.22,0,0,1,244.33,266.23Z"/><path class="cls-1" d="M258,266q-3.46,0-3.46-2a1.62,1.62,0,0,1,.41-1.27,5.85,5.85,0,0,0,1.56.21,4.41,4.41,0,0,0,1.42-.21,3.33,3.33,0,0,0,1.07-.6,2.8,2.8,0,0,0,.93-2.25V231.73a2.82,2.82,0,0,0-.44-1.55,2.12,2.12,0,0,0-1.16-.74q-.78-.22-1.28-.32a6.05,6.05,0,0,1-.92-.26q-.9-.39-.9-1a2.77,2.77,0,0,1,.39-1.68,7.7,7.7,0,0,0,1.65.13h5a5.17,5.17,0,0,1,4.08,2.3l21.74,27.55V232.09a3.62,3.62,0,0,0-.43-1.73,2,2,0,0,0-1.34-.93q-.94-.23-1.67-.35a6.92,6.92,0,0,1-1.29-.32q-1.21-.41-1.21-1.34a1.61,1.61,0,0,1,.41-1.19,7.7,7.7,0,0,0,1.65.13h10.42q3.46,0,3.46,1.47a2.63,2.63,0,0,1-.39,1.68,5.56,5.56,0,0,0-1.49-.18q-.84,0-1.46,0a2.49,2.49,0,0,0-1.11.32,2.61,2.61,0,0,0-1.14,2.43v33.13c0,.5-.14.81-.41.92a4.53,4.53,0,0,1-1.5.17q-1.84,0-3.93-2.71L264.31,235.5v24.73A2.69,2.69,0,0,0,266.4,263q.75.16,1.49.26a10.7,10.7,0,0,1,1.3.26q1.32.34,1.32,1.19a2.26,2.26,0,0,1-.39,1.42,7.69,7.69,0,0,0-1.65-.13Z"/><path class="cls-1" d="M345.79,247.3a4.69,4.69,0,0,1,.31,1.53,1.55,1.55,0,0,1-.19.9,1.17,1.17,0,0,1-.5.39,3.58,3.58,0,0,1-.72.21,3.45,3.45,0,0,0-1,.41q-1.14.65-1.14,3.41v6a7.71,7.71,0,0,1-1.42,1.81,12.75,12.75,0,0,1-2.95,2.15,20.18,20.18,0,0,1-10,2.53,24.55,24.55,0,0,1-9-1.42,16.51,16.51,0,0,1-6-4q-4.83-5.09-4.83-13.57a24.28,24.28,0,0,1,1.67-9.28,19.7,19.7,0,0,1,4.51-6.8A20.11,20.11,0,0,1,329.12,226q7,0,10.47,2.53a6.1,6.1,0,0,1,2.74,5.09,4.27,4.27,0,0,1-1.11,3.08,3.65,3.65,0,0,1-2.76,1.11,4.22,4.22,0,0,1-2.12-.39,13.55,13.55,0,0,0,.13-2,5.58,5.58,0,0,0-.53-2.37,4.24,4.24,0,0,0-1.56-1.82A9.8,9.8,0,0,0,329,230a18,18,0,0,0-6.14.93,10.64,10.64,0,0,0-4.3,2.87q-3.64,4-3.64,11.73,0,17,14.52,17a15,15,0,0,0,5.92-1.06,4.15,4.15,0,0,0,1.24-.75l0-7.39q0-1.86-2.43-2.56-.6-.16-1.21-.28l-1.23-.27a3.87,3.87,0,0,1-1-.37,1.43,1.43,0,0,1-.83-1.38,2.1,2.1,0,0,1,.39-1.41,9.72,9.72,0,0,0,2.56.21Z"/><path class="cls-1" d="M340.51,32a26.62,26.62,0,0,1-5.58-.59,26.39,26.39,0,0,1-20.2-19.81,25.75,25.75,0,0,1,0-11.55H31.37a25.71,25.71,0,0,1,0,11.55,26.39,26.39,0,0,1-20.2,19.81A26.56,26.56,0,0,1,0,31.36V181.71a26.56,26.56,0,0,1,11.17,0,26.39,26.39,0,0,1,20.2,19.81,25.71,25.71,0,0,1,0,11.55H314.73a25.74,25.74,0,0,1,0-11.55,26.5,26.5,0,0,1,31.37-19.81V31.36A26.63,26.63,0,0,1,340.51,32ZM303.34,201.52H42.76A37.75,37.75,0,0,0,11.17,170V43.09A37.76,37.76,0,0,0,42.76,11.55H303.34a37.76,37.76,0,0,0,31.58,31.54V170A37.75,37.75,0,0,0,303.34,201.52Z"/><path class="cls-1" d="M152.86,80.88c-.37.35-.51.81-.16,1.06l10.24,13.54a.65.65,0,0,1-.28.93c-.36.22-.73.32-1,.08L151.46,82.94a.76.76,0,0,0-1.23.9l10.26,13.53c.22.24.07.71-.29.93s-.72.32-.95.08L149,84.85a.76.76,0,1,0-1.23.89L158,99.26c.24.26.09.72-.28.94s-.72.32-.95.06L146.54,86.74a.77.77,0,0,0-1.07-.17h-.11a.74.74,0,0,0-.17.95L155,103.38a6.76,6.76,0,0,0,8.67,2l.37-.22c6.83,10.64,21,30.41,21.7,31.38a2.86,2.86,0,0,0,4.56-3.45c-.79-.87-16-19.86-24.41-29.39l.37-.22c2.26-2.62,2.66-6,.43-8.87L153.81,80.92A.74.74,0,0,0,152.86,80.88Z"/><path class="cls-1" d="M188.13,100.06c4.09-6,6-14.56,2.62-17s-11,2.42-15.06,8.26c-3.8,5.34-3.39,9.81-.67,12.3-8.24,10-23.28,30.39-23.28,30.39a2.86,2.86,0,1,0,4.7,3.26s13.89-21.22,20.48-32.39C180.16,106.61,184.44,105.38,188.13,100.06Z"/><path class="cls-1" d="M94.23,144.75l-13.6-.52H68.32a9.22,9.22,0,0,1-4.15-.84q-1.67-.83-1.67-2.07a5.32,5.32,0,0,1,.72-3.2,12.91,12.91,0,0,0,3.48.48,15.74,15.74,0,0,0,3-.24,4.94,4.94,0,0,0,2.17-1q2.19-1.72,2.2-6V82.78q0-4.44-5.53-5.53a11.76,11.76,0,0,1-4.46-1.55,2.37,2.37,0,0,1-1-1.84,4.24,4.24,0,0,1,.76-3,5.93,5.93,0,0,0,1.58.24H79.82q1.1,0,2.91-.09l4.06-.24q6-.29,12.24-.29A49.31,49.31,0,0,1,111.21,72a38.3,38.3,0,0,1,10.23,4.08,28.4,28.4,0,0,1,7.2,6,32,32,0,0,1,4.65,7.23,38,38,0,0,1,3.15,15.74q0,15.84-8.2,26.33Q121.8,139.64,109.3,143A59.22,59.22,0,0,1,94.23,144.75Zm-8.92-12h0q0,3.58,2.24,4.63,1.91.86,9.13.86a32.68,32.68,0,0,0,12.86-2.39,22.94,22.94,0,0,0,9-6.44q6-7.3,6-20.56,0-22.76-16.08-29.72a36.07,36.07,0,0,0-14.36-2.53q-5.68,0-6.92,1.12a4.84,4.84,0,0,0-1.55,2.77,24.77,24.77,0,0,0-.31,4.41Z"/><path class="cls-1" d="M254.65,138.49a19.76,19.76,0,0,0,3,.33,9.11,9.11,0,0,0,2-.21,5.4,5.4,0,0,0,1.72-.68,3.53,3.53,0,0,0,1.69-3.25,9.3,9.3,0,0,0-1.13-4.09l-4.42-11h-29.8L222.35,133a8.2,8.2,0,0,0-.75,2.66,2.28,2.28,0,0,0,.26,1.22,2,2,0,0,0,.8.68A5.69,5.69,0,0,0,224,138l1.93.52a19.09,19.09,0,0,1,4,.94,2.84,2.84,0,0,1,1.84,2.64,3.38,3.38,0,0,1-.71,2.16,6.51,6.51,0,0,0-1.65-.23H210.26q-6.26,0-6.26-3.44a4.36,4.36,0,0,1,.71-2.59,11.62,11.62,0,0,0,2.94.47,4.84,4.84,0,0,0,2-.38,4.61,4.61,0,0,0,1.58-1.27,23.79,23.79,0,0,0,3-6.21l23.25-56.3q1-2.26,5.6-3.11a14.8,14.8,0,0,1,2.68-.23q2.87,0,3.53,1.55L254,84.31q13.6,32.1,15.72,37.47l4.24,11.11a14.17,14.17,0,0,0,2.12,4.47,4.69,4.69,0,0,0,1.84,1.18,16.92,16.92,0,0,0,2,.54,10.19,10.19,0,0,1,1.86.54,2.6,2.6,0,0,1,1.79,2.45,3.38,3.38,0,0,1-.71,2.16,6.35,6.35,0,0,0-1.6-.23H258.83a9.55,9.55,0,0,1-3.74-.59,1.92,1.92,0,0,1-1.34-1.81A4.53,4.53,0,0,1,254.65,138.49Zm0-25.56h0l-12.33-30.5-12.1,30.5Z"/><path class="cls-3" d="M175.19,101.73c2.75-8.16,6.91-12.84,13.47-18.43A18.23,18.23,0,0,0,173.75,99a3.29,3.29,0,0,0,1.44,2.77Z"/><path class="cls-3" d="M174.8,120.26s4.16,6.08,4.55,6.63l5.64,7.89a4,4,0,0,0,2.18,1.85c2.09.44-.15-1.65-.58-2.12-3.36-3.63-5.29-6.31-10.68-12.94A11.74,11.74,0,0,0,174.8,120.26Z"/><path class="cls-3" d="M166.44,120.91c.21.14-9.5,14.16-10.27,15.28a3.85,3.85,0,0,1-1,1.13,1.53,1.53,0,0,1-1.78,0c4.27-4.84,8.07-10,12-15.12A11,11,0,0,1,166.44,120.91Z"/><path class="cls-3" d="M153.47,99.94a7.18,7.18,0,0,0,5.33,5.26,7,7,0,0,0,5-1,14.19,14.19,0,0,1-10.33-4.29Z"/></svg>